<svg xmlns="http://www.w3.org/2000/svg" xml:space="preserve" viewBox="16.78 18.99 366.18 81.89"><switch><g fill-rule="evenodd" clip-rule="evenodd"><circle cx="61.266" cy="49.019" r="30.025" fill="#B3EAFF"/><path fill="#FFF" d="M70.248 64.519c-.123-.213-.368-.213-.94-.567s-.409-.142-.736-.212c-.327-.071-.164 0-.573 0-.409 0-.531 0-.818-.071-.286-.071-.286-.39-.286-.39s-.532-.178-.777-.178c-.246 0-.491 0-1.268.036-.777.035-.532-.284-.327-.532s.041 0 .327-.177.041-.177 0-.39-.041-.106-.082-.283c-.041-.178-.286-.248-.409-.497-.123-.248-.123-.07-.368-.425-.245-.354-.123-.071-.613-.319s-.245-.035-.613-.105c-.368-.071-.327-.036-.981-.143-.654-.105-.45-.105-.45-.105l-.368-.461c-.818-.779-1.676-.992-1.676-.992s-.409.07-.9.07-.491.036-.899 0c-.409-.035-.9-.035-1.145-.212-.246-.178-.082-.178-.368-.461s-.491-.035-.491-.035-.123.035-.204.248c-.082.212-.164.354-.287.603-.123.248-.286.318-.286.318s-.082-.07-.082-.283 0-.248.041-.461c.041-.213.041-.283.041-.496s-.123-.319-.123-.319-.205.071-.409.213c-.204.142-.981.532-1.145.709s-.327.142-.573.496c-.245.354-.491.461-.491.461l-.205-.036s-.163-.142-.899-.39c-.736-.248-.205.106-.205.106s-.327-.035-.817-.07c-.491-.036-.164 0-.614-.213-.45-.213-.327-.213-.45-.531-.123-.319 0-.178.164-.461.164-.284.082-.567 0-.815s-.123-.248-.286-.531-.327-.142-.327-.142h-1.513l-.327-.071s0-.07.041-.213c.041-.142.041-.46.082-.779s.123-.106.245-.319c.123-.212.286-.177.286-.177s.164-.142.246-.461c.082-.318-.041-.354-.041-.354s-.164-.177-.327-.283-.164-.035-.327-.035-.164 0-.368.07c-.204.071-.245.071-.45.178-.204.106-.164.106-.858.814-.695.709-.9.674-1.063.674-1.554-.178-1.758-2.339-1.758-2.339-.286-3.083 1.881-3.509 2.454-3.579.572-.071 1.309.142 1.758.142s.368-.531 1.35-.567c.981-.035 1.104.248 1.104.248l.491.248s.041.178.163.391c.123.212.123.283.164.496.041.212.041.354.041.566 0 .213.164.496.532.78.368.283.532-.319.654-.957s-.327-1.418-.327-1.418c-.286-1.169 1.022-1.559 1.022-1.559s1.022-.426 1.308-.567c.287-.142.041-.213.041-.213l.205-.318c.205-.319.082-.142.286-.354s.082-.178.123-.779c.041-.603 0-.143-.082-.284-.082-.142-.041-.035-.123-.177-.082-.142-.164-.248-.164-.248l.368-.213s.082.142.082.354.041.035.327.035.082 0 .327-.213c.245-.212.082-.07.245-.39.164-.318.164-.177.532-.496.368-.318.245-.318.368-.531.123-.213.409-.106.654-.142.246-.035.45-.035.45-.035s.327-.106.368-.284c.041-.177-.286-.212-.286-.212l.041-.248s.245-.213.368-.354c.123-.142 1.799-1.099 2.126-1.205s.532.142.736.142l-.613.319c-.9.851.204.603.613.425.409-.177.368-.177.736-.39s.246-.178.368-.319-.041-.177-.041-.177-.818-.319-1.063-.709c-.246-.39-.164-.213-.164-.39s.082-.106.245-.248.164-.177.082-.39c-.082-.213-.041-.035-.327-.071-.286-.035-.327.036-.327.036s-.777.283-1.431.531-.287-.071 0-.354c.286-.283.899-.496 1.145-.673.246-.178.409-.106.818-.249.409-.142.409 0 .409 0l.818.036h.736c.409 0 .491-.071.859-.178s.45-.496.613-.638.491-.142.654-.318c.164-.178.041-.071.041-.319s-.041-.106-.205-.142-.286-.248-.45-.319c0 0-.041-.106-.205-.354s-.205-.283-.205-.283h-.613c-.163 0-.123-.213-.123-.213s-.041-.212-.164-.46-.818-1.736-.899-2.021c-.082-.283-.123-.106-.287-.283-.164-.178-.245 0-.245 0s-.082.071-.695.779c-.613.709-1.022-.814-1.022-.814-.041-1.736-2.167-1.56-2.331-1.56s-.164.106-.327.248-.123.177-.123.319c0 .142-.041.318-.082.708-.041.391-.164.319-.164.319s-.286.283-.49.638c-.205.354.49.461.49.461s0 .354-.041.603c-.041.248-.164.212-.164.212s-.654.461-.9.532c-.245.07-.164.213-.327.46-.164.249-.082 1.383-.123 1.595-.041.213-.818.248-1.186-.07-.368-.319-.205-.319-.205-.638v-.992c0-.674-.082-.248-.205-.496s-.082-.036-.286-.354c-.205-.319-.246-.178-.532-.426s-.205-.106-.695-.283c-.491-.177-.532-.106-.695-.142s-.245 0-.491-.106c-.245-.106-.041-.177-.041-.177s.041 0 .123-.178c.082-.177 0-.213 0-.39s-.204-.461-.204-.461.777-1.417 1.227-1.771.368-.213.532-.354.531-.283.531-.283.654-.213 1.391-.496c.736-.284.286-.106.327-.248.041-.143.204-.106.409-.426.205-.318.205-.213.205-.213s.123 0 .409-.142c.287-.142.082 0 .368 0s.164 0 .45-.035.123 0 .45-.319c.327-.318.082-.07.205-.212s.041-.071.123-.39c.082-.319-.082-.071-.082-.213s-.573-.178-.573-.178-.204.106-.286.248c-.082.143-.082.071-.286.354-.205.284-.205.142-.572.142-.368 0 0 0-.041-.142s.041-.035.041-.318c0-.284-.164-.284-.164-.284s-.246-.105-.45-.105c0 0 .041-.143.041-.319 0-.178.082-.106.082-.39 0-.284-.082-.284-.123-.461-.041-.177-.245-.071-.245-.071l-.205.106s-.123.284-.245.674l-.286.354-.205.354s-.041.106-.286.213c-.246.106-.205.036-.205.036l-.205-.036-.45-.07-.205-.036h-.736s-.327-.212-.409-.39c-.082-.177-.123-.213-.368-.425-.246-.213-.368.035-.368.035s-.164.283-.164.638c0 0-.082 0-.286-.106-.205-.105-.082-.142-.246-.248s-.45-.07-.777-.212c-.327-.143-.123-.036-.245-.213-.123-.178-.041-.035-.041-.354s-.082-.106-.164-.39-.123-.178-.123-.178-.041-.035-.368-.248c-.327-.212-.286-.142-.409-.283-.123-.142-.45-.035-.45-.035h-.368s-.409.106-.695.248-.572.035-.572.035l-.205-2.197C37.531 25.365 34.3 29.511 34.3 29.511s-.082.213-.164.461c-.082.248-.204.39-.204.39l-.368.283s-1.717.922-1.922 1.063-.123.318-.123.46c0 .143.409.178.409.178l3.721-2.197 1.799-.673.123.638.205.531s-.123.496-.164.638v.284h.368v.212l-.327.39s-.164.248-.327.532c-.164.283-.123.248-.205.566-.082.319-.123.461-.246.922s-.368 1.595-.368 1.595-.246.531-.409.851l-.245.177-.205.461v.461l.164.212h.245c.164 0 .164-.142.164-.142s.205.071.368.035c0 0 0 .143-.041.391-.041.248-.286.496-.613.708-.327.213-.245.248-.409.426-.164.177-.123.142-.246.566-.123.426-1.39 2.941-1.595 3.579-.204.639.041 1.914.368 2.623.327.708 1.022 3.295 1.145 3.649s.123.744.286 1.17c.164.425.899 1.63 1.104 1.771s.205.283.409.354c.204.071.123 0 .204-.142.082-.142-.041-.39-.041-.39l-.123-.284s-.327-.602-.613-1.063-.572-1.134-.695-1.312c-.123-.177-.123-.283-.123-.531s-.164-.426-.164-.426.082-.248.123-.425l.327-.035s.123.283.204.603c.082.318.082.248.246.531s2.085 3.296 2.085 3.296.245.566.409 1.275.736 1.24 1.881 1.595 1.595.779 2.413.744.9.177 1.677.638 1.309.319 1.676.354c.368.035.205.071.409.142.205.071.205.178.286.319.082.142.123.248.532.957.409.708 1.676.956 2.085 1.134.409.177.286.142.491.212 0 0 .286-.142.327-.39.041-.248.641-.138.641-.138l.522.51.065.283v1.019a.456.456 0 0 1-.196.396l-.392.452s-.131.113-.327.396-.196.509-.392 1.188l.522.453s0 .057-.261.339c-.261.283.065.85.326 1.188.261.34 1.176.963 1.829 1.868.653.905 1.045 1.019 1.894 1.472.849.452 1.502.735 1.502.735s-.065 3.679-.065 3.905.065.736.065 1.302c0 0 0 .113-.065.51-.065.396 0 .452 0 .452l.261.566c.13.283 0 .057.196.34s.131.396.131.396v.51l-.042.354s.45.213.695.284c.245.07.327 0 .327 0s.327 0 .573-.709c.245-.709-.082-.248-.082-.248l.327-.886s.45-.142.614-.354c.164-.213.123-.283.327-.461.204-.177.164-.07.409-.07s.164-.036.532-.071c.368-.035.327-.213.327-.213l-.123-.283s-.164-.106-.286-.319c-.123-.212.082-.106.246-.142s.164 0 .45 0l.409.035s.123-.177.573-.744c.45-.566 1.635-1.523 1.717-1.913.082-.39.777-.851 1.063-1.063.286-.212.409-.212 1.227-.212.817 0 .572-.426.981-.851.409-.426.572-.851 1.063-1.843s1.758-1.843 1.758-1.843.409-.709.572-1.099 0-.283-.041-.532c-.033-.247-.115-.106-.237-.318zM55.466 30.567c.166.168.083.048.194.048.11 0 .055 0 .304-.072.249-.071.027-.071-.028-.216-.055-.144-.138-.071-.221-.167-.083-.097-.083-.072-.138-.216-.056-.144-.111-.024-.332-.144-.221-.12-.221-.145-.221-.145s-.249-.119-.387-.144c-.138-.023-.11.072-.221.168-.11.096-.138.168-.332.287-.194.12-.139.168-.249.288-.111.119-.138.168-.221.287-.083.12.195.219.387.24.221.023.387 0 .553-.072.166-.072 0-.144.083-.239.083-.097.359-.145.636-.145.276.002.027.074.193.242zm1.221-7.784s.165.547.521.57c.356.024.329-.095.466-.143.137-.047.165-.047.411-.071.247-.023 0 .143 0 .262s-.082.214-.082.214-.274-.048-.604.143-.165.262-.165.262l.165.285s.466.189.604.237c.137.048.438.143.686.048.247-.096.055-.024.137-.238.083-.214.137-.095.384-.261.247-.167 0-.048 0-.238 0-.189.055-.095.302-.285.247-.189.438-.143.438-.143s.302-.285.466-.522c.165-.238.356-.167.494-.381s.055-.237-.274-.522-2.55-.119-2.715-.071 0 .143.027.262c.027.118.22.38.22.38l-.192.19s-.082.023-.274.023-.083-.048-.165-.333c-.083-.285-.356-.166-.466-.166s-.165.119-.384.262c-.22.141 0 .236 0 .236zm29.694 20.865-.491-.042s-.049 1.105.393.936c.441-.171.491 0 .393-.256-.098-.255-.147-.425-.147-.425l-.148-.213zm-2.994-6.676s-.098.085-.441.468c-.344.383-.049.341-.049.341s-.049.425-.049.595c0 .171-.049.426-.049.426s-.343.468-.687.638c-.343.17-.343.34-.343.34l1.619 1.574-.049.936s-.442.042-.638.042h-1.178c-.344 0-.295.043-.295.043v.383c0 .34.049.383.049.595 0 .213.147 1.021.393 1.701s.834.979 1.57 1.021c.736.043.932-1.021.981-1.658.049-.638 0-.213.294-.596s.098-.255.098-.255l-.098-.298-.049-.255-.245-.298.54-.128s.098 0 .589-.085.098-.042.196-.212c.098-.171.491-.043.491-.043s.049.17.098.383.344.596.589.851c.246.255.147.17.393.34.246.17.049.085.098.426.049.34 0 .127 0 .468 0 .34-.049.127-.049.425s0 .085.147.383.294.128.294.128.196-.298.294-.638c.099-.344.099-.642.05-.939-.049-.298-.147-.298-.196-.554-.049-.255-.197-.17-.393-.382l-.393-.426c-.197-.213-.344-.34-.54-.553-.118-.127-.507-.236-.311-.364.196-.127-.082-.104-.082-.104s.049-.213.147-.468.393.085.393.085.196.213.49.681c.295.468.246.298.54.638s.294.596.441.808c.147.213.246.298.491.553.246.256-.343-1.147-.343-1.147v-.724c0-.255-.246-.808-.441-1.19-.197-.383-.295-.383-.54-.808l-.393-.681c-.245-.425-.491-.978-.54-1.573-.049-.596-.736-1.021-.933-1.616-.196-.595-.393-.213-.393-.213l-.245.298-.098.213-.933.298-.292.127zM56.11 24.637c.083.143-.055.096.137.238s.137.071.439.189c.301.119.438.167.576.19s.055 0 .247.023c.192.024.165 0 .548.024.384.023.384.237.438.023.055-.214.192-.237.055-.309s.247-.119-.302-.119-.932-.071-.932-.071-.302.095-.521-.262a4.227 4.227 0 0 0-.301-.451l-.192-.071-.164-.141-.192.071-.109.19.137.261c0 .001.054.072.136.215zm4.541 3.878c0-.178.041-.285.082-.534s0-.178-.123-.427-.247-.178-.493-.32c-.247-.143-.288-.071-.534-.214-.247-.142-.124-.071-.288-.284-.165-.214-.165-.178-.288-.32s-.247-.143-.534-.285c0 0-.041.214-.041.428l-.657-.143-.123-.214c-.082-.143 0-.178-.123-.32-.124-.143-.165-.035-.329-.035-.165 0-.288.071-.288.071s-.041.106-.164.284c-.124.178-.247.036-.247.036s-.082-.179-.082-.356l-.206-.071-.37.107c-.246.071-.205.249-.328.462-.124.214-.206.641-.206.641l.657.143c.164.036.452.071.944.143s.575.071.944.071l.329.213s.123.179.206.356c.082.178.164.143.164.284 0 .143.37.249.37.249v.463l-.123.214-.37.32c-.206.178-.082.178-.082.178s-.411.106-.657.143c-.247.035-.164 0-.37 0-.205 0-.288.106-.288.106v.249l.288.249s.493.107.944.107c0 0 .041.106.534.676.493.569 1.478.926 1.478.926s.165-.25.165-.428.205-.106.205-.106h.452c.288 0 .082-.071.206-.392.123-.32 0-.178-.041-.392-.042-.213-.124-.178-.288-.213-.165-.036-.493-.356-.493-.356s-.124-.143-.206-.284c-.082-.143.411-.499.411-.499s.657.854 1.027.605.246-.178.37-.32c.123-.143.082-.178.041-.463-.041-.284-.082-.035-.206-.213-.123-.179-.288-.179-.452-.179s-.37 0-.821-.106.004-.073.004-.25zm18.909 7.309c0 .17-.049.255-.049.255s-.049.17-.196.34c-.147.17-.147.596-.196.766l.294.255v.468c0 .298 0 .341.196.341s.491-.17.785-.553 0-.171 0-.341-.147-.298-.147-.298l-.049-.297.098-.341c.049-.17.246.17.246.17s.098.086.196.298c.098.213.098.298.098.298s.098.213.147.511c.049.297 0 .212.147.468.147.255 0 .68 0 .68s0 .256.54.085c.54-.17 0-.042.393-.382.393-.341.344-.128.344-.128s.049-.17.098-.426c.049-.255-.098-.297-.098-.297s-.246-.256-.442-.468c-.196-.213-.196-.085-.441-.298-.246-.213-.246-.596-.981-1.063-.736-.468-.196-.298-.196-.298l-.098-.425a.691.691 0 0 0-.196-.34s-.294-.171-.491-.341-.589 0-.589 0l-.049.426s.196.212.491.595.145.17.145.34zm.245-3.827c.049.468.098.468.246.808.147.34 1.03 1.573 1.619 1.871s.441-.596.441-.596.098.17.491.511c.393.34 0 .595 0 .595l-.196.256-.099.213.589.425c.295.213.491.425.491.425.344.085.393-.383.442-.595.049-.213 0-.298 0-.298s-.147-.213-.246-.383l-.245-.425s.785.297.343-.639c-.441-.936-.638-.765-1.03-1.488-.393-.723-.54-.595-1.031-1.275s-.736-.851-1.03-1.275c-.294-.426-1.668-.383-1.668-.383s.589 1.147.687 1.318c.098.169.147.467.196.935zM52.319 54.438c.641.256.197 0 .838 0s.049 0 .197-.171c.148-.172-.148-.257-.148-.257s-.197-.086-.493-.257-.296-.085-.542-.213c-.247-.129-.148-.043-.592-.214s-.247-.129-.493-.257-.395-.128-.641-.214c-.247-.085-.345-.042-.69-.042s-.247 0-.493.085c-.247.086-.395.214-.789.47-.395.257.345.172.345.172l.493-.043s.099 0 .493-.086c.395-.085.444.043.444.043l.345.171s.345.171.74.257c.395.085.197.256.197.256s.148.044.789.3zm3.452.769c.296-.085.099 0 .641-.085.542-.086 0-.043 0-.257s-.197-.171-.197-.171l-.444-.085-.345-.171s-.345-.043-.74-.086c-.394-.043-.246.128-.246.128l-.148.342s-.247.129-.444.171c-.197.043-.099.257-.099.471 0 0 .148.043 1.38.085 1.233.043.049 0 .148-.171.099-.171.198-.085.494-.171zm8.136-16.624c.05-.257.148-.129.247-.471.099-.342 0-.085-.296-.085-.295 0-.295.128-.295.128l-.345.299c-.198.171-.296.514-.296.514l-.247.427s-.099.257-.296.556.148.214.148.214.542.085.74.128c.197.043.147 0 1.084 0s.247.257.247.257l.247.042.444.086v-.342c0-.257-.099-.257-.197-.599s-.395-.256-.395-.256l-.443-.171s-.148-.043-.395-.342c-.248-.3-.001-.129.048-.385zM89.548 48.63l-.647-.124-.503-.125-.503-.249-1.078-1.059s.072-.311.072-.996-1.005-.373-1.005-.373c-.934.187-1.437.561-1.437.561l-.647.435s-.072-.063-.359-.063c-.288 0-.575.063-.575.063l-.144.312s-.215.249-.503.685c-.287.436-.072.249-.359 1.432-.288 1.183-.072.312-.144.623s0 .062-.431.436c-.431.373-.359.373-.647.685-.287.312-.215.312-.431.623-.215.311-.215.311-.503.685-.287.373-.215.373-.215.747v.373l.072.623s-.072.124-.144.373 0 .125 0 .374.072 1.743-.215 2.241c-.288.498.215.934.215.934s-.144.623.646 1.868c.791 1.245 1.293.809 1.293.809h.575c.287 0 .287 0 .718-.124.431-.125.431-.249.431-.249l.718-.623s.216 0 .862.249 0 .437 0 .437l.288.56.359.188-.503 1.618c-.503 1.619-.359 2.116-.359 2.116 5.462-4.61 5.103-16.065 5.103-16.065zM70.892 27.831l-.48-.208-.08-.832s.08-.069.08-.555-.24-.208-.64-.555c-.4-.347-.24-.069-.56-.277-.32-.208-.48-.347-1.76-1.456s-4.561-1.872-4.881-1.872h-.88l-.4.069-.32.416v1.109l-.8.208s.48.416 1.041.971c0 0 .4.069 1.04.277s.16.208.88.971.96.832.96.832v.555l.4.277.4.416s.08.208 0 .485 0 .416 0 .416-.4.485.16 1.733 2.081 2.565 2.88 2.773c.8.209.64-2.011.64-2.011s-.08-.485 0-.832c0 0 .24 0 .8-.416s.4-.277.4-.555l.08-.347.4-.069s.72-.347 1.04-.485c0 0 .16-.277.16-.624s-.241-.275-.56-.414zm3.68 2.704-.8-.277h-.56l-.64-.069s.24.277.4.624.16.277.48.624c.32.347.48.277.88.485.4.208.08 0 .48-.069s0-.485 0-.971l-.24-.347zm-25.355-5.264c.139 0 0 .144 0 .239s-.027.216-.027.336c0 .119-.277.168-.277.168l-.249.096s-.083.144-.083.312c0 .167.166.167.166.167s.055.097.387.336c.332.239.636.023.636.023s.028 0 .525-.191.498.168.608.24c.11.071.47-.097.47-.097h.359c.276 0 .276-.096.47-.264.193-.167 0-.144 0-.239s-.304-.168-.304-.168-.028-.071.11-.335 0-.096.221-.384c.221-.287 0-.096-.249-.383-.249-.288-.222.048-.332.071-.111.024-.359 0-.359 0s-.304-.048-.47-.191.028-.264.028-.264.055-.072.221-.264.027-.12-.138-.312c-.166-.191-.194-.096-.332-.191s-.304-.048-.304-.048-.249.023-.415.023c-.166 0-.249.072-.691.384s-.47.359-.581.455c-.111.096-.222.407-.222.407s.249.072.415.072h.417zm2.67-1.608c.22.237 0 .118 0 .237s-.027.237-.055.38.219.096.356.071c.137-.023 1.261-.023 1.261-.023l.028-.522h-.412s-.219-.071-.301-.31c-.083-.237-.028-.118-.028-.38s-.082-.143-.165-.262c-.082-.119-.165 0-.548 0s-.219.143-.494.333.139.238.358.476zm6.282 4.67c-.065-.225-.292-.056-.292-.056s-.033.084-.13.225c-.098.142-.163.226-.163.226l.455.113s.195-.282.13-.508zm-3.675-3.924c.167.084.153.048.264.048.111 0 .319-.012.319-.012s.083-.434.028-.555c-.056-.12-.125-.023-.458-.084s-.208.036-.32.133c-.111.096-.042.12-.042.253.001.132.042.132.209.217zm.167 1.156c-.042.132.028.192.028.192l.361.12s.403-.181.584-.337.014-.192-.042-.277c-.055-.084-.181 0-.375 0-.195 0-.278.061-.403.085-.126.024-.111.085-.153.217zm-2.215 1.586s-.228.087-.051.175.354.154.354.154c0-.088.102-.264.102-.264l-.304-.308-.03.234-.071.009zm.811-1.427c-.051.11-.127.154-.228.241-.102.088.608.11.608.11s.127-.22.177-.329c.051-.11.127-.088.279-.22s0-.022 0-.197c0-.176-.076-.132-.126-.264-.051-.132-.279-.022-.279-.022l-.102.286-.203.131s-.075.154-.126.264z"/><path d="M123.729 39.349h-14.608v2.882h5.863v26.457h2.881V42.23h5.864v-2.881zm10.922 6.468c-3.05 0-5.689 1.155-7.919 3.466-2.23 2.311-3.345 5.091-3.345 8.342 0 3.211 1.112 5.961 3.335 8.251 2.223 2.291 4.94 3.436 8.151 3.436 3.156 0 5.843-1.169 8.06-3.506 2.217-2.337 3.325-5.158 3.325-8.463 0-3.144-1.132-5.851-3.395-8.12-2.265-2.271-5.002-3.406-8.212-3.406zm6.206 18.185c-1.612 1.727-3.607 2.59-5.984 2.59-2.418 0-4.44-.863-6.065-2.59-1.625-1.726-2.438-3.865-2.438-6.417 0-2.553.809-4.695 2.428-6.429 1.619-1.732 3.556-2.599 5.813-2.599 2.512 0 4.584.843 6.216 2.528 1.632 1.687 2.448 3.839 2.448 6.458 0 2.58-.806 4.733-2.418 6.459zm24.421-6.579c0 1.948-.074 3.315-.222 4.101-.148.786-.39 1.468-.725 2.046-.591.98-1.37 1.729-2.337 2.246-.967.518-2.089.776-3.365.776-2.244 0-3.855-.628-4.836-1.885-.98-1.256-1.471-3.395-1.471-6.417V46.522h-2.801v11.565c0 4.004.705 6.868 2.116 8.595 1.41 1.726 3.714 2.589 6.911 2.589 1.504 0 2.788-.235 3.849-.705 1.061-.471 2.021-1.229 2.881-2.277v2.398h2.841V46.522h-2.841v10.901zm12.282-10.498c-.826.457-1.589 1.176-2.287 2.156v-2.559h-2.68v22.165h2.881v-13.38c0-2.042.386-3.517 1.159-4.423.772-.907 2.052-1.44 3.839-1.602l-.021-3.083c-1.101.028-2.065.27-2.891.726zm133.825-4.464-6.557 21.507-5.278-21.507h-2.359l-5.313 21.507-6.521-21.507H282.8l8.159 26.227h2.144l5.277-21.399 5.26 21.399h2.144l8.124-26.227h-2.523zm11.672 5.781c-2.726 0-5.086 1.033-7.079 3.099s-2.99 4.552-2.99 7.457c0 2.87.994 5.329 2.981 7.377 1.987 2.047 4.416 3.07 7.286 3.07 2.822 0 5.224-1.044 7.205-3.134s2.972-4.611 2.972-7.565c0-2.81-1.012-5.229-3.035-7.259s-4.47-3.045-7.34-3.045zm5.547 16.257c-1.44 1.543-3.224 2.314-5.35 2.314-2.161 0-3.969-.771-5.422-2.314s-2.18-3.455-2.18-5.737c0-2.281.724-4.196 2.171-5.746 1.447-1.549 3.179-2.323 5.196-2.323 2.246 0 4.098.754 5.558 2.261 1.459 1.507 2.188 3.432 2.188 5.772.002 2.305-.719 4.23-2.161 5.773zm12.222-15.266c-.738.408-1.42 1.051-2.044 1.928v-2.288h-2.396v19.814h2.576v-11.96c0-1.825.345-3.144 1.036-3.954.69-.811 1.834-1.287 3.431-1.432l-.018-2.756c-.984.024-1.847.24-2.585.648zm4.855 19.455h2.54V42.461h-2.54v26.227zm23.308-26.227v9.546a8.788 8.788 0 0 0-3.251-2.656c-1.279-.606-2.699-.91-4.261-.91-2.906 0-5.325.994-7.259 2.981s-2.9 4.435-2.9 7.34c0 2.931.979 5.404 2.937 7.422 1.957 2.018 4.365 3.025 7.223 3.025a9.782 9.782 0 0 0 4.197-.927 9.187 9.187 0 0 0 3.314-2.585v2.99h2.558V42.461h-2.558zM366.81 64.49c-1.501 1.573-3.23 2.359-5.188 2.359-2.126 0-3.936-.786-5.431-2.359s-2.243-3.519-2.243-5.836c0-2.198.745-4.056 2.234-5.575 1.488-1.519 3.278-2.278 5.367-2.278 2.018 0 3.773.799 5.269 2.396s2.243 3.524 2.243 5.782c.001 2.101-.75 3.938-2.251 5.511z"/><path fill="#C00" d="M180.915 42.23h5.864v26.457h2.881V42.23h5.864v-2.882h-14.609v2.882zm21.167 4.695c-.826.457-1.588 1.176-2.287 2.156v-2.559h-2.68v22.165h2.881v-13.38c0-2.042.386-3.517 1.159-4.423.772-.907 2.052-1.44 3.839-1.602l-.021-3.083c-1.101.028-2.065.27-2.891.726zm24.109 3.143a9.359 9.359 0 0 0-3.547-2.992c-1.424-.691-2.988-1.037-4.694-1.037-3.317 0-6.082 1.115-8.292 3.345-2.209 2.229-3.314 5.004-3.314 8.321 0 3.265 1.082 6.009 3.244 8.231 2.162 2.224 4.869 3.335 8.121 3.335 1.746 0 3.375-.362 4.886-1.088s2.71-1.727 3.597-3.003v3.507h2.781V46.522h-2.781v3.546zm-2.508 13.873c-1.673 1.794-3.637 2.69-5.894 2.69-2.338 0-4.34-.85-6.005-2.549s-2.499-3.785-2.499-6.257c0-2.592.837-4.766 2.51-6.519 1.672-1.753 3.697-2.629 6.074-2.629 2.189 0 4.124.876 5.804 2.629 1.679 1.753 2.519 3.806 2.519 6.156-.001 2.527-.837 4.686-2.509 6.479zm17.278.455-7.092-17.873h-3.003l8.665 22.165h2.599l9.067-22.165h-3.082l-7.154 17.873zm22.629-18.478c-3.398 0-6.189 1.102-8.373 3.305-2.183 2.203-3.273 4.99-3.273 8.362 0 3.224 1.115 5.984 3.345 8.281s4.956 3.445 8.181 3.445c2.432 0 4.57-.656 6.418-1.969 1.847-1.313 3.281-3.195 4.302-5.647h-3.224c-.726 1.538-1.754 2.739-3.084 3.602-1.329.863-2.827 1.295-4.492 1.295-2.352 0-4.313-.744-5.885-2.231-1.571-1.487-2.445-3.437-2.619-5.849h20.009v-.209c0-3.671-1.052-6.653-3.153-8.945-2.104-2.294-4.821-3.44-8.152-3.44zm-8.625 10.115c.336-2.278 1.25-4.088 2.741-5.427s3.312-2.009 5.46-2.009c2.311 0 4.185.623 5.622 1.869s2.425 3.101 2.962 5.566h-16.785zm23.233-16.684v29.339h2.841V39.349h-2.841z"/><path fill="#25AD53" d="M16.782 38.447c5.642 18.239 36.298 14.29 40.624 40.24 2.444-28.77-28.4-28.018-40.624-40.24z"/><path fill="#E5BA10" d="M23.531 54.753c5.831 12.975 20.5 6.017 25.014 24.633 2.068-15.419-18.055-19.368-25.014-24.633z"/><path fill="#666" d="M120.356 88.278h5.972v-1.113h-4.726v-3.942h4.44V82.11h-4.44v-3.43h4.726v-1.113h-5.972v10.711zm15.219-10.712h-1.326l-2.682 4.242-2.66-4.242h-1.377l3.319 5.114-3.561 5.598h1.319l2.931-4.711 2.88 4.711h1.414l-3.576-5.642 3.319-5.07zm4.565 0h-2.777v10.712h1.246v-4.221h1.26c1.377 0 2.437-.291 3.176-.873.74-.583 1.11-1.415 1.11-2.497 0-2.081-1.339-3.121-4.015-3.121zm1.985 4.895c-.493.356-1.292.534-2.396.534h-1.121v-4.352H140c.982 0 1.705.173 2.169.52.464.348.696.875.696 1.583 0 .786-.246 1.358-.74 1.715zm5.518-4.895h-1.246v10.712h5.972v-1.113h-4.726v-9.599zm10.939-.169c-1.583 0-2.804.48-3.664 1.441-.86.962-1.29 2.315-1.29 4.062 0 1.756.429 3.116 1.286 4.079.857.964 2.075 1.445 3.653 1.445 1.543 0 2.749-.49 3.616-1.471.867-.98 1.3-2.327 1.3-4.039 0-1.722-.432-3.072-1.297-4.05-.864-.977-2.065-1.467-3.604-1.467zm2.674 8.828c-.605.749-1.502 1.123-2.689 1.123-1.177 0-2.075-.375-2.693-1.126-.618-.751-.927-1.854-.927-3.307 0-1.434.309-2.526.927-3.277.618-.751 1.521-1.126 2.708-1.126 1.182 0 2.075.373 2.678 1.119.603.746.905 1.841.905 3.284 0 1.458-.303 2.562-.909 3.31zm11.409-5.641c0-1.008-.314-1.764-.941-2.266-.628-.501-1.599-.752-2.913-.752h-2.938v10.712h1.246v-4.462h2.235l2.594 4.462h1.473l-2.909-4.818c1.435-.499 2.153-1.457 2.153-2.876zm-3.839 2.17h-1.708v-4.11h1.619c.923 0 1.594.156 2.012.471.417.313.626.825.626 1.536 0 .701-.205 1.228-.616 1.577-.409.35-1.054.526-1.933.526zm6.323 5.524h5.972v-1.113h-4.726v-3.942h4.44V82.11h-4.44v-3.43h4.726v-1.113h-5.972v10.711zm10.903-9.598h3.393v9.599h1.246V78.68h3.393v-1.113h-8.031v1.113zm16.53 3.444h-5.642v-4.558h-1.246v10.712h1.246v-5.041h5.642v5.041h1.246V77.566h-1.246v4.558zm4.184 6.154h5.972v-1.113h-4.726v-3.942h4.439V82.11h-4.439v-3.43h4.726v-1.113h-5.972v10.711zm21.433-4.11c-.262.996-.439 1.842-.533 2.535a19.57 19.57 0 0 0-.601-2.555l-2.019-6.582h-1.308l-1.903 6.514a18.3 18.3 0 0 0-.582 2.623 24.239 24.239 0 0 0-.508-2.521l-1.692-6.616h-1.319l2.854 10.712h1.23l2.092-7.129c.234-.768.406-1.473.514-2.118.004.099.078.388.221.867l.354 1.197 2.13 7.183h1.231l2.865-10.712h-1.319l-1.707 6.602zm9.1-6.771c-1.583 0-2.805.48-3.664 1.441-.859.962-1.289 2.315-1.289 4.062 0 1.756.428 3.116 1.285 4.079.857.964 2.075 1.445 3.652 1.445 1.544 0 2.75-.49 3.617-1.471.866-.98 1.3-2.327 1.3-4.039 0-1.722-.433-3.072-1.297-4.05-.864-.977-2.066-1.467-3.604-1.467zm2.674 8.828c-.605.749-1.502 1.123-2.689 1.123-1.177 0-2.074-.375-2.692-1.126s-.927-1.854-.927-3.307c0-1.434.309-2.526.927-3.277s1.521-1.126 2.708-1.126c1.182 0 2.074.373 2.678 1.119s.904 1.841.904 3.284c-.001 1.458-.304 2.562-.909 3.31zm11.818-2.277c0 .308.013.74.037 1.297.033.713.055 1.138.064 1.274h-.058l-5.839-8.953h-1.407v10.712h1.15v-6.089c0-.879-.039-1.847-.117-2.901h.059l5.854 8.99h1.406V77.566h-1.15v6.382zm7.394-6.382h-3.282v10.712h2.967c1.803 0 3.184-.468 4.145-1.403.959-.936 1.439-2.287 1.439-4.056 0-1.655-.462-2.945-1.385-3.868-.924-.924-2.218-1.385-3.884-1.385zm2.829 8.539c-.748.73-1.864 1.096-3.35 1.096h-1.516v-8.558h1.809c1.383 0 2.425.354 3.125 1.063.701.708 1.053 1.761 1.053 3.157 0 1.432-.375 2.513-1.121 3.242zm4.828 2.173h5.972v-1.113h-4.726v-3.942h4.439V82.11h-4.439v-3.43h4.726v-1.113h-5.972v10.711zm15.137-7.694c0-1.008-.313-1.764-.941-2.266-.628-.501-1.599-.752-2.913-.752h-2.938v10.712h1.246v-4.462h2.234l2.594 4.462h1.473l-2.908-4.818c1.436-.499 2.153-1.457 2.153-2.876zm-3.838 2.17h-1.707v-4.11h1.619c.923 0 1.594.156 2.011.471.418.313.626.825.626 1.536 0 .701-.205 1.228-.615 1.577-.411.35-1.055.526-1.934.526zm6.323 5.524h1.245v-4.572h4.44v-1.113h-4.44V78.68h4.727v-1.113h-5.972v10.711zm14.588-3.726c0 .9-.244 1.592-.732 2.073-.488.482-1.185.723-2.089.723-.947 0-1.665-.239-2.153-.719-.489-.479-.733-1.167-.733-2.063v-7H292.1v6.902c0 1.23.353 2.197 1.059 2.901.706.703 1.704 1.055 2.993 1.055 1.29 0 2.304-.349 3.041-1.048.737-.698 1.106-1.658 1.106-2.879v-6.932h-1.246v6.987zm5.327-6.986h-1.245v10.712h5.972v-1.113h-4.727v-9.599zm19.632 6.602c-.262.996-.44 1.842-.534 2.535a19.57 19.57 0 0 0-.601-2.555l-2.018-6.582h-1.309l-1.903 6.514c-.257.854-.45 1.729-.581 2.623a24.528 24.528 0 0 0-.509-2.521l-1.692-6.616h-1.319l2.854 10.712h1.229l2.094-7.129c.234-.768.405-1.473.513-2.118.004.099.078.388.221.867l.354 1.197 2.129 7.183h1.231l2.865-10.712h-1.319l-1.705 6.602zm9.098-6.771c-1.583 0-2.805.48-3.664 1.441-.859.962-1.289 2.315-1.289 4.062 0 1.756.429 3.116 1.285 4.079.857.964 2.075 1.445 3.653 1.445 1.543 0 2.749-.49 3.615-1.471.867-.98 1.301-2.327 1.301-4.039 0-1.722-.432-3.072-1.297-4.05-.863-.977-2.066-1.467-3.604-1.467zm2.674 8.828c-.605.749-1.502 1.123-2.688 1.123-1.178 0-2.075-.375-2.693-1.126s-.927-1.854-.927-3.307c0-1.434.309-2.526.927-3.277s1.521-1.126 2.708-1.126c1.182 0 2.074.373 2.678 1.119s.905 1.841.905 3.284c-.001 1.458-.304 2.562-.91 3.31zm11.409-5.641c0-1.008-.314-1.764-.942-2.266-.627-.501-1.598-.752-2.912-.752H340.4v10.712h1.246v-4.462h2.234l2.594 4.462h1.473l-2.908-4.818c1.435-.499 2.153-1.457 2.153-2.876zm-3.839 2.17h-1.707v-4.11h1.619c.923 0 1.594.156 2.012.471.417.313.626.825.626 1.536 0 .701-.205 1.228-.615 1.577-.411.35-1.057.526-1.935.526zm7.569-5.188h-1.246v10.712h5.972v-1.113h-4.726v-9.599zm13.709 1.385c-.923-.924-2.218-1.385-3.884-1.385h-3.282v10.712h2.968c1.802 0 3.184-.468 4.144-1.403s1.439-2.287 1.439-4.056c0-1.655-.462-2.945-1.385-3.868zm-1.055 7.154c-.748.73-1.864 1.096-3.349 1.096h-1.518v-8.558h1.811c1.382 0 2.424.354 3.125 1.063.7.708 1.051 1.761 1.051 3.157 0 1.432-.373 2.513-1.12 3.242z"/><path d="M382.708 70.036c-.169-.156-.398-.235-.688-.235-.284 0-.51.078-.675.232-.164.155-.247.381-.247.678 0 .293.079.518.238.672s.387.231.684.231c.293 0 .523-.077.69-.231s.25-.379.25-.672-.083-.518-.252-.675zm.198-4.796c0-.415-.033-.769-.098-1.06a2.825 2.825 0 0 0-.324-.821h-1.251c.317.57.476 1.175.476 1.813 0 .562-.189.988-.57 1.279s-.95.437-1.707.437c-1.551 0-2.326-.584-2.326-1.752 0-.396.118-.896.354-1.503l-1.154-.434c-.265.57-.397 1.212-.397 1.924 0 1.05.306 1.854.916 2.409.611.556 1.484.833 2.62.833 1.115 0 1.971-.266 2.567-.797s.894-1.306.894-2.328zm-3.51-3.065c.704 0 1.322-.13 1.855-.391.534-.261.942-.633 1.228-1.117s.428-1.042.428-1.674c0-1.009-.31-1.797-.929-2.362-.618-.566-1.479-.849-2.582-.849-1.066 0-1.915.284-2.544.854s-.943 1.344-.943 2.32c0 1.021.308 1.813.923 2.375.613.563 1.468.844 2.564.844zm0-4.915c1.559 0 2.338.569 2.338 1.709 0 1.152-.779 1.729-2.338 1.729-.745 0-1.317-.136-1.716-.406-.399-.271-.599-.707-.599-1.31 0-1.149.772-1.722 2.315-1.722zm-3.488-6.516c0 .428.088.819.263 1.176.176.356.424.628.745.815v.073l-.886.201v1.123h6.754v-1.435h-3.364c-.839 0-1.438-.129-1.799-.388s-.54-.664-.54-1.218c0-.416.127-.721.382-.916.254-.195.64-.293 1.157-.293h4.164v-1.441h-3.578c-.721 0-1.255-.129-1.603-.388-.349-.259-.522-.667-.522-1.225 0-.415.127-.721.382-.919.254-.197.64-.296 1.157-.296h4.164v-1.435h-4.402c-.835 0-1.455.184-1.862.553-.407.368-.611.955-.611 1.761 0 .469.094.884.281 1.246s.448.644.781.843v.098c-.708.34-1.063 1.027-1.063 2.065z"/><path fill="#1075BA" d="M65.895 59.394c-1.373 1.22-1.373.305-1.373.305-2.136-12.964-15.559-22.726-28.831-27.453-13.271-4.729-17.971-7.768-17.971-7.768 2.44 11.286 11.883 14.205 15.841 16.052 20.987 7.026 46.812 31.077 14.833 48.763-13.603 8.04-11.843 11.596-11.843 11.596 3.508-5.49 8.25-5.275 15.81-9.003C77.835 83.65 75.506 74.133 77.184 61.78c.152-12.813 7.572-11.7 7.572-11.7-14.08-10.438-12.759 5.5-18.861 9.314zm11.707-8.53a.944.944 0 1 1 0-1.889.944.944 0 0 1 0 1.889z"/></g></switch></svg>